<?xml version="1.0" encoding="utf-8"?>
<!-- Generator: Adobe Illustrator 24.1.0, SVG Export Plug-In . SVG Version: 6.00 Build 0)  -->
<svg version="1.1" id="Layer_1" xmlns="http://www.w3.org/2000/svg" xmlns:xlink="http://www.w3.org/1999/xlink" x="0px" y="0px"
	 viewBox="0 0 30 26" style="enable-background:new 0 0 30 26;" xml:space="preserve">
<style type="text/css">
	.st0{fill:#131950;}
	.st1{fill-rule:evenodd;clip-rule:evenodd;fill:#FFFFFF;stroke:#FF4D37;stroke-width:1.3;}
</style>
<desc>Created with Sketch.</desc>
<g id="Flexible-Template">
	<g id="GIT---Flexible-Landing-Landing-Page-Membership-Ad" transform="translate(-969.000000, -1134.000000)">
		<g id="Group-13" transform="translate(969.000000, 1134.000000)">
			<g id="noun_group_737671">
				<path id="Shape" class="st0" d="M26.6,14c0.7-0.7,1.2-1.6,1.2-2.7c0-2-1.6-3.6-3.6-3.6c-0.2,0-0.4,0-0.6,0.1
					c-0.4-0.5-1-0.9-1.5-1.2c0.7-0.7,1.2-1.6,1.2-2.7c0-2-1.6-3.6-3.6-3.6s-3.6,1.6-3.6,3.6c0,1.1,0.5,2,1.2,2.7
					c-0.9,0.5-1.7,1.2-2.2,2.1c-0.5-0.9-1.3-1.6-2.2-2.1c0.7-0.7,1.2-1.6,1.2-2.7c0-2-1.6-3.6-3.6-3.6S6.5,1.9,6.5,3.9
					c0,1.1,0.5,2,1.2,2.7C7.1,6.9,6.6,7.3,6.2,7.7C6,7.7,5.7,7.7,5.5,7.7c-2,0-3.6,1.6-3.6,3.6c0,1.1,0.5,2,1.2,2.7
					c-1.8,0.9-3,2.7-3,4.8v1.9l0.3,0.2c1.2,0.8,3,1.3,5.1,1.3c1.5,0,2.8-0.2,4-0.7c0,0.2,0,0.4,0,0.6v1.9l0.3,0.2
					c1.2,0.8,3,1.3,5.1,1.3s3.9-0.5,5.1-1.3l0.3-0.2v-1.9c0-0.2,0-0.4,0-0.6c1.1,0.4,2.4,0.7,3.9,0.7c2,0,3.9-0.5,5.1-1.3l0.3-0.2
					v-1.9C29.5,16.8,28.3,14.9,26.6,14z M27.9,19.9c-0.9,0.5-2.3,0.8-3.9,0.8s-2.9-0.3-3.9-0.8v-1.1c0-2.1,1.7-3.9,3.9-3.9
					s3.9,1.7,3.9,3.9V19.9z M9.4,18.9v1.1c-0.9,0.5-2.3,0.8-3.9,0.8s-2.9-0.3-3.9-0.8v-1.1c0-2.1,1.7-3.9,3.9-3.9S9.4,16.7,9.4,18.9
					z M3.4,11.3c0-1.1,0.9-2.1,2.1-2.1c1.1,0,2.1,0.9,2.1,2.1s-0.9,2.1-2.1,2.1C4.4,13.4,3.4,12.5,3.4,11.3z M8.1,3.9
					c0-1.1,0.9-2.1,2.1-2.1c1.1,0,2.1,0.9,2.1,2.1S11.3,6,10.2,6C9,6,8.1,5,8.1,3.9z M14,11.2c-1.6,0.4-2.8,1.8-2.8,3.6
					c0,1.1,0.5,2,1.2,2.7c-0.6,0.3-1,0.6-1.5,1.1c-0.1-2-1.3-3.7-3-4.5c0.7-0.7,1.2-1.6,1.2-2.7c0-1.2-0.6-2.3-1.5-2.9
					c0.7-0.6,1.5-0.9,2.4-0.9C12.2,7.5,13.9,9.2,14,11.2z M17.4,3.9c0-1.1,0.9-2.1,2.1-2.1c1.1,0,2.1,0.9,2.1,2.1S20.7,6,19.5,6
					S17.4,5,17.4,3.9z M21.9,8.4c-0.9,0.7-1.5,1.7-1.5,2.9c0,1.1,0.5,2,1.2,2.7c-1.7,0.8-2.8,2.5-3,4.4c-0.4-0.4-0.9-0.8-1.4-1
					c0.7-0.7,1.2-1.6,1.2-2.7c0-1.7-1.2-3.2-2.9-3.6c0.1-2,1.8-3.6,3.8-3.6C20.4,7.5,21.2,7.9,21.9,8.4z M26.2,11.3
					c0,1.1-0.9,2.1-2.1,2.1c-1.1,0-2.1-0.9-2.1-2.1s0.9-2.1,2.1-2.1C25.3,9.2,26.2,10.2,26.2,11.3z M14.9,16.8
					c-1.1,0-2.1-0.9-2.1-2.1s0.9-2.1,2.1-2.1c1.1,0,2.1,0.9,2.1,2.1S16,16.8,14.9,16.8z M11,22.3c0-2.1,1.7-3.9,3.9-3.9
					s3.9,1.7,3.9,3.9v1.1c-0.9,0.5-2.3,0.8-3.9,0.8s-2.9-0.3-3.9-0.8V22.3z"/>
			</g>
			<path id="Path" class="st1" d="M14.8,11.7c-0.9,0-1.6,0.3-2.2,0.9c-0.6,0.6-0.9,1.3-0.9,2.2c0,0.9,0.3,1.6,0.9,2.2
				c0.6,0.6,1.3,0.9,2.2,0.9c0.8,0,1.6-0.3,2.2-0.9c0.6-0.6,0.9-1.3,0.9-2.2c0-0.9-0.3-1.6-0.9-2.2C16.4,12,15.6,11.7,14.8,11.7z"/>
			<path id="Path_1_" class="st1" d="M14.8,17.4c-1.3,0-2.5,0.6-3.4,1.5C10.6,19.7,10,21,10,22.4V24c1.1,0.7,2.9,1.2,4.8,1.2
				c2,0,3.8-0.5,4.8-1.2v-1.6c0-1.4-0.5-2.6-1.4-3.5C17.4,17.9,16.2,17.4,14.8,17.4z"/>
		</g>
	</g>
</g>
</svg>
