<?xml version="1.0" encoding="utf-8"?>
<!-- Generator: Adobe Illustrator 24.1.0, SVG Export Plug-In . SVG Version: 6.00 Build 0)  -->
<svg version="1.1" id="Layer_1" xmlns="http://www.w3.org/2000/svg" xmlns:xlink="http://www.w3.org/1999/xlink" x="0px" y="0px"
	 viewBox="0 0 37 37" style="enable-background:new 0 0 37 37;" xml:space="preserve">
<style type="text/css">
	.st0{fill:#131950;}
	.st1{fill:#FF4D37;}
</style>
<desc>Created with Sketch.</desc>
<g id="Flexible-Template">
	<g id="GIT---Flexible-Landing-Landing-Page-Membership-Ad" transform="translate(-796.000000, -1128.000000)">
		<g id="noun_education_1999435-2" transform="translate(796.000000, 1128.000000)">
			<g id="noun_education_1999435">
				<path id="Shape" class="st0" d="M16.9,25.3l0.2,0.2c0,0,0,0,0,0s0,0,0,0l2.7,2.7c0,0,0,0,0,0c0,0,0,0,0,0l3,3c0,0,0,0,0,0
					c0,0,0,0,0,0l2.4,2.4c0,0,0,0,0,0c0,0,0,0,0,0l3,3c0.1,0.1,0.3,0.2,0.5,0.2c0.2,0,0.4-0.1,0.5-0.2l7.4-7.4
					c0.3-0.3,0.3-0.8,0-1.1L25.3,16.8 M19,10.5L8.8,0.4C8.5,0.1,8,0.1,7.7,0.4L0.4,7.7C0.2,7.9,0.2,8.1,0.2,8.3
					c0,0.2,0.1,0.4,0.2,0.5l3,3c0,0,0,0,0,0c0,0,0,0,0,0l2.4,2.4c0,0,0,0,0,0c0,0,0,0,0,0l3,3c0,0,0,0,0,0c0,0,0,0,0,0l1.7,1.7
					 M12.1,19.5l7.4-7.4c0,0,0,0,0,0 M35,28.7L28.7,35l-1.9-1.9l2.4-2.4c0.3-0.3,0.3-0.8,0-1.1c-0.3-0.3-0.8-0.3-1.1,0L25.7,32
					l-1.4-1.4l1.3-1.3c0.3-0.3,0.3-0.8,0-1.1c-0.3-0.3-0.8-0.3-1.1,0l-1.3,1.3l-2-2l2.4-2.4c0.3-0.3,0.3-0.8,0-1.1
					c-0.3-0.3-0.8-0.3-1.1,0l-2.4,2.4L18.7,25l1.3-1.3c0.3-0.3,0.3-0.8,0-1.1c-0.1-0.1-0.2-0.1-0.3-0.2l4.5-4.5L35,28.7z M10.5,16.8
					l2.4-2.4c0.3-0.3,0.3-0.8,0-1.1c-0.3-0.3-0.8-0.3-1.1,0l-2.4,2.4l-2-2l1.3-1.3c0.3-0.3,0.3-0.8,0-1.1c-0.3-0.3-0.8-0.3-1.1,0
					l-1.3,1.3L5,11.3l2.4-2.4c0.3-0.3,0.3-0.8,0-1.1c-0.3-0.3-0.8-0.3-1.1,0L4,10.2l-2-2L8.3,2l9.6,9.6l-6.3,6.3L10.5,16.8z"/>
				<path id="Shape-Copy-2" class="st1" d="M4.5,25c0,0-0.1,0.1-0.1,0.1c0,0,0,0,0,0c0,0,0,0.1-0.1,0.1c0,0,0,0,0,0L2,32.9
					c-0.1,0.3,0,0.6,0.2,0.7c0.1,0.1,0.3,0.2,0.5,0.2c0.1,0,0.1,0,0.2,0l7.5-2.3c0,0,0,0,0,0c0,0,0,0,0.1,0c0.1,0,0.1-0.1,0.2-0.1
					c0,0,0,0,0,0l6.1-6.1l8.4-8.4l8.5-8.5C34,8.2,34,8,34,7.8c0-0.2-0.1-0.4-0.2-0.5L28.6,2c-0.3-0.3-0.8-0.3-1.1,0L19,10.6L10.5,19
					L4.5,25z M19.7,12.4C19.7,12.4,19.7,12.4,19.7,12.4l6.2-6.2l4.1,4.1l-6.2,6.2c0,0,0,0,0,0l-7.3,7.3c0,0,0,0,0,0l-6,6l-2.1-2.1
					l-2.1-2.1l6-6L19.7,12.4z M4.2,32l1.5-4.9l3.4,3.4L4.2,32z M28.1,4l4.1,4.1L31,9.3l-4.1-4.1L28.1,4z"/>
			</g>
		</g>
	</g>
</g>
</svg>
