<?xml version="1.0" encoding="utf-8"?>
<!-- Generator: Adobe Illustrator 24.1.0, SVG Export Plug-In . SVG Version: 6.00 Build 0)  -->
<svg version="1.1" id="Layer_1" xmlns="http://www.w3.org/2000/svg" xmlns:xlink="http://www.w3.org/1999/xlink" x="0px" y="0px"
	 viewBox="0 0 29 36" style="enable-background:new 0 0 29 36;" xml:space="preserve">
<style type="text/css">
	.st0{fill:#FF4D37;}
	.st1{fill:#131950;}
</style>
<desc>Created with Sketch.</desc>
<g id="Flexible-Template">
	<g id="GIT---Flexible-Landing-Landing-Page-Membership-Ad" transform="translate(-1138.000000, -1128.000000)">
		<g id="Group-2" transform="translate(1138.000000, 1128.000000)">
			<g id="noun_x5F_education_x5F_2076302-_x28_1_x29_" transform="translate(0.000000, 3.000000)">
				<g id="Group">
					<path id="Shape" class="st0" d="M0.2,16.7C0.1,16.8,0,16.9,0,17s0.1,0.2,0.2,0.3l0.7,0.4C1.5,18,2,18.5,2.3,19.1l0.4,0.7
						C2.8,19.9,2.9,20,3,20c0.1,0,0.2-0.1,0.3-0.2l0.4-0.7C4,18.5,4.5,18,5.1,17.7l0.7-0.4C5.9,17.2,6,17.1,6,17s-0.1-0.2-0.2-0.3
						l-0.7-0.4C4.5,16,4,15.5,3.7,14.8l-0.4-0.7c-0.1-0.2-0.5-0.2-0.6,0l-0.4,0.7C2,15.5,1.5,16,0.9,16.3L0.2,16.7z M1.2,16.9
						c0.7-0.4,1.3-1,1.7-1.7L3,15l0.1,0.2c0.4,0.7,1,1.3,1.7,1.7L5,17l-0.2,0.1c-0.7,0.4-1.3,1-1.7,1.7L3,19l-0.1-0.2
						c-0.4-0.7-1-1.3-1.7-1.7L1,17L1.2,16.9z"/>
					<path id="Shape_1_" class="st0" d="M27.5,19c0.4,0,0.7-0.1,1-0.4c0,0,0,0,0,0c0.6-0.5,0.7-1.5,0.1-2.1c-0.3-0.3-0.6-0.5-1-0.5
						c-0.4,0-0.8,0.1-1.1,0.4c-0.6,0.5-0.7,1.5-0.1,2.1C26.6,18.8,27,19,27.5,19C27.4,19,27.5,19,27.5,19z M26.9,16.8
						c0.2-0.2,0.4-0.2,0.6-0.2c0,0,0,0,0.1,0c0.3,0,0.5,0.1,0.7,0.3c0.3,0.4,0.3,1-0.1,1.3c-0.2,0.2-0.4,0.3-0.7,0.2
						c-0.3,0-0.5-0.1-0.7-0.3C26.4,17.7,26.5,17.1,26.9,16.8z"/>
					<path id="Shape_2_" class="st0" d="M5.6,0C5.2,0,4.8,0.1,4.5,0.4C3.9,0.9,3.8,1.9,4.4,2.5C4.6,2.8,5,3,5.4,3c0,0,0.1,0,0.1,0
						c0.4,0,0.7-0.1,1-0.4c0.6-0.5,0.7-1.5,0.1-2.1C6.4,0.2,6,0,5.6,0z M6.1,2.2C6.1,2.2,6.1,2.2,6.1,2.2C5.9,2.4,5.7,2.5,5.4,2.4
						C5.2,2.4,5,2.3,4.8,2.1c-0.3-0.4-0.3-1,0.1-1.3c0.2-0.2,0.4-0.2,0.6-0.2c0,0,0,0,0.1,0c0.3,0,0.5,0.1,0.6,0.3
						C6.6,1.3,6.5,1.9,6.1,2.2z"/>
					<path id="Shape_3_" class="st1" d="M15,0.4c-4.7,0.3-8.5,4.4-8.7,9.3c-0.1,2.6,0.8,5.1,2.5,7c1.3,1.5,2.1,2.7,2.1,4.7h-0.7
						c-1,0-1.7,0.8-1.7,1.7c0,0.8,0.5,1.4,1.2,1.6v2.3c0,0.9,0.7,1.6,1.6,1.6h0.1v1.4c0,1.1,0.9,2,2,2h4.3c1.1,0,2-0.9,2-2v-1.4h0.1
						c0.9,0,1.6-0.7,1.6-1.6v-2.3c0.7-0.2,1.2-0.9,1.2-1.6c0-1-0.8-1.7-1.7-1.7h-0.6c0.1-2,0.8-3.2,2.1-4.8c1.6-1.8,2.5-4.2,2.5-6.6
						c0-2.8-1.1-5.4-3.1-7.3C19.9,1.1,17.5,0.3,15,0.4z M18.9,30.2c0,0.6-0.5,1.1-1.1,1.1h-4.3c-0.6,0-1.1-0.5-1.1-1.1v-1.4h6.5
						V30.2L18.9,30.2z M19.8,28h-8.4c-0.4,0-0.7-0.3-0.7-0.7V25h9.8v2.3C20.5,27.6,20.2,28,19.8,28z M21.7,23.3
						c0,0.5-0.4,0.8-0.8,0.8H10.3c-0.5,0-0.8-0.4-0.8-0.8c0-0.5,0.4-0.8,0.8-0.8h10.6C21.4,22.4,21.7,22.8,21.7,23.3z M14.7,21.6
						L14,13.1h3.2l-0.7,8.5H14.7z M24,10.2c0,2.3-0.8,4.4-2.3,6c-1.5,1.7-2.3,3.1-2.4,5.4h-2l0.7-8.5h1.2c0.2,0,0.4-0.2,0.4-0.4
						s-0.2-0.4-0.4-0.4h-1.2l0.1-1.3c0-0.2-0.2-0.5-0.4-0.5c-0.2,0-0.5,0.2-0.5,0.4l-0.1,1.4h-3.3l-0.1-1.4c0-0.2-0.2-0.4-0.5-0.4
						c-0.2,0-0.4,0.2-0.4,0.5l0.1,1.3h-1.2c-0.2,0-0.4,0.2-0.4,0.4s0.2,0.4,0.4,0.4h1.2l0.7,8.5h-2c-0.1-2.3-0.9-3.7-2.4-5.3
						c-1.6-1.7-2.4-4-2.3-6.4c0.2-4.5,3.6-8.2,7.8-8.5c2.3-0.1,4.4,0.6,6.1,2.2C23,5.2,24,7.6,24,10.2z"/>
				</g>
			</g>
			<path id="Shape_4_" class="st0" d="M27.8,2.2l-0.6-0.3c-0.5-0.3-0.9-0.7-1.2-1.2l-0.3-0.6c-0.1-0.2-0.4-0.2-0.5,0l-0.3,0.6
				c-0.3,0.5-0.7,0.9-1.2,1.2l-0.6,0.3C23.1,2.3,23,2.4,23,2.5s0.1,0.2,0.2,0.3l0.6,0.3c0.5,0.3,0.9,0.7,1.2,1.2l0.3,0.6
				C25.3,4.9,25.4,5,25.5,5s0.2-0.1,0.3-0.2l0.3-0.6c0.3-0.5,0.7-0.9,1.2-1.2l0.6-0.3C27.9,2.7,28,2.6,28,2.5
				C28,2.4,27.9,2.3,27.8,2.2z M27,2.5c-0.6,0.3-1.1,0.8-1.5,1.5l-0.1,0.1L25.4,4c-0.3-0.6-0.8-1.1-1.4-1.5l-0.1-0.1L24,2.4
				c0.6-0.3,1.1-0.8,1.5-1.5l0.1-0.1L25.6,1c0.3,0.6,0.8,1.1,1.5,1.5l0.1,0.1L27,2.5z"/>
		</g>
	</g>
</g>
</svg>
